<svg width="50" height="62" viewBox="0 0 224 212" fill="none" xmlns="http://www.w3.org/2000/svg">
    <path d="M55.6097 119L108 50.3613L160.39 119H55.6097Z" stroke="#2195CF" stroke-width="15" />
    <path d="M104 7L177 50V127" stroke="#214280" stroke-width="15" />
    <path d="M112 7L39 50V127" stroke="#214280" stroke-width="15" />
    <path
        d="M25.1953 156.281L12.9688 203H0.898438L18.6719 146.125H26.2109L25.1953 156.281ZM34.8438 203L22.5391 156.281L21.4062 146.125H29.0625L46.9922 203H34.8438ZM35.2734 181.789V191.281H9.60938V181.789H35.2734ZM67.2656 203H57.2266L57.3047 193.547H67.2656C70.026 193.547 72.1745 193.052 73.7109 192.062C75.2474 191.073 76.3281 189.51 76.9531 187.375C77.6042 185.24 77.9297 182.44 77.9297 178.977V170.109C77.9297 167.479 77.7604 165.253 77.4219 163.43C77.0833 161.581 76.5104 160.096 75.7031 158.977C74.8958 157.831 73.8151 156.984 72.4609 156.438C71.1068 155.891 69.4271 155.617 67.4219 155.617H57.0312V146.125H67.4219C70.7031 146.125 73.6849 146.659 76.3672 147.727C79.0495 148.794 81.3542 150.357 83.2812 152.414C85.2083 154.445 86.6927 156.958 87.7344 159.953C88.776 162.948 89.2969 166.359 89.2969 170.188V178.977C89.2969 182.831 88.776 186.242 87.7344 189.211C86.6927 192.18 85.2083 194.693 83.2812 196.75C81.3802 198.781 79.0755 200.331 76.3672 201.398C73.6589 202.466 70.625 203 67.2656 203ZM63.8672 146.125V203H52.4219V146.125H63.8672ZM109.531 146.125V203H98.1641V146.125H109.531ZM123.359 146.125H133.398L145 185.031L156.562 146.125H165.43L149.258 203H140.703L123.359 146.125ZM119.297 146.125H128.867L130.352 183.625V203H119.297V146.125ZM161.055 146.125H170.664V203H159.648V183.625L161.055 146.125ZM219.961 170.148V179.641C219.961 183.651 219.466 187.167 218.477 190.188C217.513 193.182 216.133 195.695 214.336 197.727C212.565 199.732 210.417 201.242 207.891 202.258C205.391 203.273 202.617 203.781 199.57 203.781C196.523 203.781 193.737 203.273 191.211 202.258C188.711 201.242 186.549 199.732 184.727 197.727C182.93 195.695 181.536 193.182 180.547 190.188C179.557 187.167 179.062 183.651 179.062 179.641V170.148C179.062 166.034 179.544 162.44 180.508 159.367C181.471 156.268 182.865 153.69 184.688 151.633C186.51 149.549 188.672 147.987 191.172 146.945C193.672 145.878 196.445 145.344 199.492 145.344C202.539 145.344 205.312 145.878 207.812 146.945C210.312 147.987 212.474 149.549 214.297 151.633C216.12 153.69 217.513 156.268 218.477 159.367C219.466 162.44 219.961 166.034 219.961 170.148ZM208.594 179.641V170.07C208.594 167.362 208.398 165.057 208.008 163.156C207.617 161.229 207.031 159.654 206.25 158.43C205.469 157.206 204.518 156.307 203.398 155.734C202.279 155.161 200.977 154.875 199.492 154.875C198.008 154.875 196.693 155.161 195.547 155.734C194.427 156.307 193.477 157.206 192.695 158.43C191.94 159.654 191.367 161.229 190.977 163.156C190.612 165.057 190.43 167.362 190.43 170.07V179.641C190.43 182.245 190.625 184.471 191.016 186.32C191.406 188.169 191.992 189.68 192.773 190.852C193.555 192.023 194.505 192.896 195.625 193.469C196.771 194.016 198.086 194.289 199.57 194.289C201.029 194.289 202.318 194.016 203.438 193.469C204.583 192.896 205.534 192.023 206.289 190.852C207.044 189.68 207.617 188.169 208.008 186.32C208.398 184.471 208.594 182.245 208.594 179.641Z"
        fill="#22457F" />
</svg>